<svg width="444" height="389" viewBox="0 0 444 389" fill="none" xmlns="http://www.w3.org/2000/svg">
<ellipse cx="222" cy="222" rx="204" ry="167" fill="#141C27"/>
<path d="M152.225 379.313C159.079 376.724 163.88 370.743 163.88 363.78V318.096C163.88 316.429 164.034 314.695 164.275 312.935C164.14 312.969 164.015 312.995 163.88 313.02C163.88 313.02 134.96 313.02 129.176 313.02C114.716 313.02 102.184 307.944 96.4 297.792C89.652 286.794 86.76 268.182 69.408 258.03C66.516 256.338 68.444 253.8 74.228 253.8C80.012 254.646 92.544 261.414 100.256 270.72C108.932 280.026 117.608 287.64 133.032 287.64C157.007 287.64 169.857 286.582 177.588 282.945C186.592 271.194 199.056 262.26 212.08 262.26V262.048C157.44 260.509 122.534 244.57 106.281 219.96C70.9504 220.315 40.1892 223.386 22.6347 225.941C22.0756 223.175 21.5936 220.391 21.1791 217.591C38.5022 215.087 67.8656 212.118 101.625 211.551C100.545 209.216 99.6101 206.822 98.8196 204.368C64.9736 202.862 35.7644 204.038 19.897 205.189C19.7042 202.38 19.4439 199.58 19.4053 196.737C35.3017 195.595 63.7204 194.453 96.6988 195.798C95.9373 191.568 95.4456 187.245 95.4456 182.744C95.4456 168.362 101.23 153.134 111.834 140.444C107.014 126.062 100.266 95.6065 113.762 84.6085C139.79 84.6085 158.106 95.6065 166.782 102.374C183.16 96.444 201.476 93.06 221.72 93.06C241.964 93.06 260.28 96.444 275.704 102.366C284.38 95.598 302.696 84.6 328.724 84.6C343.184 96.444 335.472 126.9 330.652 140.436C341.256 153.126 347.04 167.508 346.076 182.736C346.076 186.831 345.642 190.781 345.016 194.656C378.746 193.201 407.936 194.368 424.102 195.519C424.083 198.37 423.784 201.153 423.611 203.971C407.502 202.803 377.579 201.602 343.03 203.218C342.172 206.06 341.131 208.827 339.897 211.508C374.08 211.898 404.147 214.799 422.299 217.337C421.885 220.146 421.403 222.929 420.844 225.687C402.412 223.099 370.995 220.07 335.25 219.918C319.2 244.266 284.929 260.145 231.36 261.998V262.26C256.424 262.26 279.56 295.254 279.56 318.096V363.78C279.56 370.743 284.361 376.724 291.215 379.313C379.527 353.662 443.44 280.567 443.44 194.58C443.44 87.2903 343.984 0 221.72 0C99.4559 0 0 87.2903 0 194.58C0 280.567 63.9132 353.662 152.225 379.313Z" fill="#56E7A4"/>
</svg>
