<svg width="916" height="672" viewBox="0 0 916 672" fill="none" xmlns="http://www.w3.org/2000/svg">
<rect x="115" y="100" width="687" height="508" fill="#141C27"/>
<path d="M806.6 0H109C48.832 0 0 35.7952 0 79.9V591.26C0 635.365 48.832 671.16 109 671.16H806.6C866.768 671.16 915.6 635.365 915.6 591.26V79.9C915.6 35.7952 866.768 0 806.6 0ZM283.4 255.68V559.3H152.6V255.68H283.4ZM152.6 167.311C152.6 144.939 178.76 127.84 218 127.84C257.24 127.84 281.874 144.939 283.4 167.311C283.4 189.683 258.984 207.74 218 207.74C178.76 207.74 152.6 189.683 152.6 167.311ZM763 559.3H632.2C632.2 559.3 632.2 411.325 632.2 399.5C632.2 367.54 610.4 335.58 555.9 334.941H554.156C501.4 334.941 479.6 367.86 479.6 399.5C479.6 414.042 479.6 559.3 479.6 559.3H348.8V255.68H479.6V296.589C479.6 296.589 521.674 255.68 606.258 255.68C692.804 255.68 763 299.305 763 387.675V559.3Z" fill="#56E7A4"/>
</svg>
